<svg xmlns="http://www.w3.org/2000/svg" xmlns:xlink="http://www.w3.org/1999/xlink" width="1080" zoomAndPan="magnify" viewBox="0 0 810 809.999993" height="1080" preserveAspectRatio="xMidYMid meet" version="1.0"><path fill="#99b9ff" d="M 53.878906 662.28125 C 83.320312 711.011719 135.734375 734.027344 168.238281 748.292969 C 308.738281 809.988281 489.761719 773.710938 605.261719 693.78125 C 719.273438 614.890625 809.851562 444.390625 750.964844 273.441406 C 678.441406 62.910156 433.335938 25.472656 381.882812 19.710938 C 205.933594 0 55.878906 87.769531 26.484375 144.492188 C 0.179688 195.25 7.984375 238.945312 7.984375 238.945312 C 10.261719 251.675781 14.179688 261.65625 16.957031 267.8125 C 23.628906 277 33.4375 291.933594 41.953125 311.84375 C 41.953125 311.84375 52.800781 339.101562 58.023438 369.652344 C 82.664062 513.855469 2.246094 576.808594 53.878906 662.28125 " fill-opacity="1" fill-rule="nonzero"/><path fill="#4070f4" d="M 103.421875 445.085938 C 107.535156 430.738281 122.503906 422.445312 136.855469 426.558594 C 151.203125 430.675781 159.5 445.644531 155.382812 459.992188 C 151.265625 474.34375 136.296875 482.640625 121.949219 478.519531 C 107.597656 474.40625 99.304688 459.433594 103.421875 445.085938 Z M 109.375 503.300781 L 119.46875 506.199219 L 124.980469 496.144531 C 127.4375 496.394531 129.882812 496.445312 132.296875 496.28125 L 137.441406 506.519531 L 147.628906 503.976562 L 147.375 492.507812 C 149.597656 491.503906 151.734375 490.324219 153.765625 488.964844 L 163.351562 495.261719 L 170.90625 487.96875 L 164.960938 478.183594 C 166.371094 476.222656 167.628906 474.121094 168.714844 471.902344 L 180.164062 472.566406 L 183.0625 462.472656 L 173.003906 456.960938 C 173.253906 454.503906 173.304688 452.0625 173.144531 449.644531 L 183.375 444.5 L 180.835938 434.3125 L 169.367188 434.566406 C 168.367188 432.34375 167.183594 430.207031 165.828125 428.179688 L 172.125 418.585938 L 164.832031 411.035156 L 155.042969 416.984375 C 153.082031 415.570312 150.984375 414.316406 148.765625 413.222656 L 149.425781 401.777344 L 139.332031 398.882812 L 133.820312 408.941406 C 131.363281 408.6875 128.917969 408.640625 126.507812 408.796875 L 121.359375 398.566406 L 111.171875 401.105469 L 111.429688 412.570312 C 109.203125 413.574219 107.066406 414.757812 105.035156 416.113281 L 95.449219 409.816406 L 87.898438 417.109375 L 93.84375 426.898438 C 92.429688 428.863281 91.175781 430.960938 90.085938 433.175781 L 78.636719 432.515625 L 75.742188 442.605469 L 85.800781 448.121094 C 85.546875 450.578125 85.5 453.023438 85.660156 455.433594 L 75.425781 460.582031 L 77.964844 470.773438 L 89.433594 470.511719 C 90.433594 472.738281 91.621094 474.871094 92.976562 476.90625 L 86.679688 486.492188 L 93.96875 494.042969 L 103.761719 488.097656 C 105.71875 489.511719 107.820312 490.769531 110.035156 491.855469 L 109.375 503.300781 " fill-opacity="1" fill-rule="nonzero"/><path fill="#265df2" d="M 109.265625 442.96875 C 105.363281 456.558594 113.253906 470.792969 126.847656 474.691406 C 133.429688 476.582031 140.359375 475.792969 146.351562 472.46875 C 152.34375 469.152344 156.683594 463.695312 158.574219 457.109375 C 160.464844 450.523438 159.675781 443.59375 156.355469 437.601562 C 153.035156 431.609375 147.578125 427.269531 140.992188 425.382812 C 127.402344 421.480469 113.164062 429.371094 109.265625 442.96875 Z M 133.960938 478.457031 C 131.332031 478.457031 128.683594 478.09375 126.085938 477.347656 C 111.027344 473.023438 102.292969 457.261719 106.609375 442.203125 C 110.929688 427.144531 126.691406 418.40625 141.753906 422.726562 C 149.046875 424.824219 155.089844 429.628906 158.769531 436.265625 C 162.449219 442.902344 163.320312 450.574219 161.226562 457.871094 C 159.136719 465.167969 154.328125 471.207031 147.691406 474.886719 C 143.417969 477.253906 138.714844 478.457031 133.960938 478.457031 Z M 136.8125 492.398438 C 137.332031 492.398438 137.8125 492.691406 138.046875 493.15625 L 142.699219 502.402344 L 150.742188 500.398438 L 150.511719 490.035156 C 150.5 489.480469 150.820312 488.972656 151.324219 488.746094 C 153.476562 487.777344 155.558594 486.625 157.515625 485.3125 C 157.976562 485.003906 158.578125 485.003906 159.042969 485.308594 L 167.703125 491 L 173.671875 485.242188 L 168.296875 476.394531 C 168.007812 475.921875 168.03125 475.316406 168.355469 474.871094 C 169.714844 472.988281 170.9375 470.941406 171.996094 468.792969 C 172.238281 468.292969 172.757812 467.992188 173.3125 468.023438 L 183.660156 468.617188 L 185.949219 460.648438 L 176.859375 455.667969 C 176.371094 455.402344 176.09375 454.867188 176.148438 454.316406 C 176.390625 451.9375 176.4375 449.554688 176.285156 447.234375 C 176.25 446.679688 176.546875 446.160156 177.042969 445.910156 L 186.289062 441.257812 L 184.28125 433.214844 L 173.917969 433.441406 C 173.355469 433.457031 172.855469 433.132812 172.628906 432.632812 C 171.660156 430.476562 170.503906 428.394531 169.199219 426.441406 C 168.890625 425.980469 168.886719 425.378906 169.191406 424.914062 L 174.882812 416.25 L 169.125 410.285156 L 160.277344 415.660156 C 159.804688 415.949219 159.203125 415.921875 158.753906 415.597656 C 156.871094 414.242188 154.828125 413.015625 152.675781 411.957031 C 152.175781 411.714844 151.875 411.195312 151.90625 410.644531 L 152.5 400.292969 L 144.53125 398.007812 L 139.550781 407.097656 C 139.285156 407.585938 138.753906 407.863281 138.199219 407.804688 C 135.816406 407.566406 133.433594 407.519531 131.117188 407.667969 C 130.554688 407.707031 130.042969 407.410156 129.792969 406.917969 L 125.140625 397.667969 L 117.09375 399.675781 L 117.328125 410.039062 C 117.335938 410.59375 117.019531 411.101562 116.511719 411.328125 C 114.367188 412.296875 112.285156 413.449219 110.324219 414.757812 C 109.863281 415.066406 109.261719 415.070312 108.796875 414.765625 L 100.132812 409.074219 L 94.167969 414.832031 L 99.542969 423.675781 C 99.828125 424.152344 99.808594 424.75 99.480469 425.203125 C 98.125 427.085938 96.898438 429.132812 95.84375 431.28125 C 95.601562 431.777344 95.078125 432.085938 94.523438 432.050781 L 84.179688 431.457031 L 81.890625 439.425781 L 90.980469 444.40625 C 91.46875 444.671875 91.746094 445.203125 91.691406 445.757812 C 91.449219 448.136719 91.402344 450.519531 91.554688 452.839844 C 91.589844 453.394531 91.292969 453.914062 90.796875 454.164062 L 81.550781 458.816406 L 83.554688 466.859375 L 93.921875 466.625 C 94.480469 466.597656 94.980469 466.9375 95.210938 467.445312 C 96.179688 469.589844 97.332031 471.675781 98.640625 473.632812 C 98.949219 474.09375 98.953125 474.695312 98.648438 475.15625 L 92.957031 483.824219 L 98.714844 489.789062 L 107.5625 484.414062 C 108.035156 484.125 108.636719 484.152344 109.085938 484.476562 C 110.96875 485.832031 113.011719 487.058594 115.164062 488.109375 C 115.664062 488.359375 115.964844 488.878906 115.933594 489.429688 L 115.335938 499.78125 L 123.308594 502.066406 L 128.285156 492.976562 C 128.554688 492.488281 129.082031 492.203125 129.640625 492.261719 C 132.019531 492.507812 134.402344 492.554688 136.722656 492.398438 C 136.753906 492.398438 136.785156 492.398438 136.8125 492.398438 Z M 141.960938 505.390625 C 141.449219 505.390625 140.964844 505.105469 140.726562 504.632812 L 135.984375 495.207031 C 134.105469 495.289062 132.191406 495.253906 130.273438 495.09375 L 125.199219 504.359375 C 124.890625 504.925781 124.226562 505.203125 123.605469 505.023438 L 113.515625 502.128906 C 112.894531 501.949219 112.480469 501.367188 112.519531 500.71875 L 113.125 490.175781 C 111.414062 489.292969 109.773438 488.3125 108.222656 487.246094 L 99.207031 492.71875 C 98.652344 493.058594 97.945312 492.964844 97.496094 492.5 L 90.203125 484.945312 C 89.753906 484.484375 89.6875 483.765625 90.042969 483.230469 L 95.84375 474.398438 C 94.820312 472.796875 93.890625 471.125 93.078125 469.410156 L 82.515625 469.644531 C 81.878906 469.660156 81.300781 469.226562 81.144531 468.601562 L 78.605469 458.414062 C 78.449219 457.789062 78.746094 457.132812 79.324219 456.84375 L 88.746094 452.101562 C 88.664062 450.21875 88.703125 448.308594 88.859375 446.394531 L 79.59375 441.316406 C 79.03125 441.003906 78.753906 440.347656 78.933594 439.726562 L 81.828125 429.632812 C 82.003906 429.011719 82.601562 428.601562 83.234375 428.632812 L 93.777344 429.242188 C 94.660156 427.53125 95.644531 425.886719 96.714844 424.339844 L 91.234375 415.324219 C 90.898438 414.773438 90.992188 414.0625 91.457031 413.613281 L 99.007812 406.320312 C 99.472656 405.871094 100.1875 405.804688 100.726562 406.160156 L 109.558594 411.957031 C 111.15625 410.933594 112.832031 410.011719 114.546875 409.195312 L 114.308594 398.632812 C 114.292969 397.988281 114.730469 397.417969 115.355469 397.261719 L 125.542969 394.722656 C 126.167969 394.566406 126.820312 394.863281 127.109375 395.441406 L 131.851562 404.867188 C 133.734375 404.777344 135.648438 404.816406 137.5625 404.976562 L 142.640625 395.714844 C 142.949219 395.148438 143.609375 394.871094 144.230469 395.050781 L 154.324219 397.945312 C 154.945312 398.125 155.359375 398.707031 155.320312 399.355469 L 154.714844 409.898438 C 156.425781 410.78125 158.070312 411.761719 159.617188 412.828125 L 168.632812 407.351562 C 169.1875 407.015625 169.894531 407.105469 170.34375 407.574219 L 177.636719 415.128906 C 178.085938 415.589844 178.152344 416.300781 177.796875 416.84375 L 171.996094 425.675781 C 173.019531 427.273438 173.945312 428.945312 174.761719 430.664062 L 185.324219 430.425781 C 185.996094 430.398438 186.539062 430.847656 186.695312 431.472656 L 189.234375 441.664062 C 189.390625 442.285156 189.09375 442.9375 188.515625 443.230469 L 179.089844 447.972656 C 179.175781 449.847656 179.136719 451.765625 178.980469 453.679688 L 188.242188 458.757812 C 188.808594 459.066406 189.085938 459.726562 188.90625 460.347656 L 186.011719 470.441406 C 185.835938 471.0625 185.246094 471.472656 184.605469 471.4375 L 174.058594 470.832031 C 173.175781 472.542969 172.195312 474.1875 171.125 475.734375 L 176.605469 484.75 C 176.941406 485.300781 176.847656 486.011719 176.382812 486.457031 L 168.828125 493.753906 C 168.363281 494.199219 167.652344 494.265625 167.113281 493.914062 L 158.28125 488.109375 C 156.679688 489.136719 155.007812 490.0625 153.292969 490.875 L 153.53125 501.441406 C 153.542969 502.085938 153.109375 502.65625 152.480469 502.8125 L 142.292969 505.351562 C 142.183594 505.382812 142.070312 505.390625 141.960938 505.390625 " fill-opacity="1" fill-rule="nonzero"/><path fill="#4070f4" d="M 98.308594 603.429688 C 105.351562 578.875 130.964844 564.679688 155.519531 571.722656 C 180.074219 578.769531 194.269531 604.382812 187.226562 628.9375 C 180.183594 653.492188 154.566406 667.683594 130.015625 660.644531 C 105.460938 653.597656 91.265625 627.984375 98.308594 603.429688 Z M 108.503906 703.046875 L 125.773438 708.003906 L 135.203125 690.792969 C 139.40625 691.226562 143.589844 691.308594 147.71875 691.035156 L 156.527344 708.546875 L 173.960938 704.199219 L 173.523438 684.574219 C 177.328125 682.859375 180.984375 680.835938 184.457031 678.515625 L 200.863281 689.289062 L 213.789062 676.808594 L 203.613281 660.058594 C 206.03125 656.703125 208.179688 653.113281 210.042969 649.320312 L 229.632812 650.449219 L 234.589844 633.175781 L 217.378906 623.746094 C 217.808594 619.542969 217.894531 615.359375 217.621094 611.234375 L 235.128906 602.421875 L 230.785156 584.988281 L 211.160156 585.425781 C 209.445312 581.621094 207.417969 577.964844 205.101562 574.492188 L 215.875 558.082031 L 203.394531 545.160156 L 186.644531 555.335938 C 183.289062 552.914062 179.695312 550.773438 175.902344 548.90625 L 177.03125 529.316406 L 159.761719 524.359375 L 150.332031 541.574219 C 146.125 541.140625 141.941406 541.054688 137.816406 541.332031 L 129.007812 523.820312 L 111.574219 528.167969 L 112.011719 547.789062 C 108.207031 549.5 104.550781 551.53125 101.078125 553.851562 L 84.671875 543.078125 L 71.746094 555.554688 L 81.921875 572.304688 C 79.503906 575.660156 77.355469 579.253906 75.492188 583.046875 L 55.898438 581.917969 L 50.945312 599.191406 L 68.15625 608.617188 C 67.726562 612.824219 67.640625 617.003906 67.914062 621.136719 L 50.40625 629.945312 L 54.75 647.375 L 74.375 646.9375 C 76.089844 650.746094 78.117188 654.398438 80.433594 657.871094 L 69.660156 674.28125 L 82.140625 687.207031 L 98.890625 677.027344 C 102.242188 679.449219 105.835938 681.59375 109.628906 683.460938 L 108.503906 703.046875 " fill-opacity="1" fill-rule="nonzero"/><path fill="#265df2" d="M 150.515625 567.019531 C 131.007812 567.019531 113.007812 579.859375 107.363281 599.523438 C 104.0625 611.046875 105.441406 623.164062 111.25 633.648438 C 117.058594 644.128906 126.605469 651.726562 138.125 655.03125 C 149.644531 658.335938 161.765625 656.957031 172.25 651.148438 C 182.734375 645.335938 190.328125 635.789062 193.632812 624.273438 C 200.453125 600.488281 186.65625 575.585938 162.871094 568.765625 C 158.753906 567.582031 154.601562 567.019531 150.515625 567.019531 Z M 150.566406 659.550781 C 146.15625 659.550781 141.722656 658.933594 137.363281 657.6875 C 125.132812 654.175781 115.003906 646.113281 108.835938 634.988281 C 102.667969 623.859375 101.203125 610.992188 104.710938 598.765625 C 111.953125 573.519531 138.382812 558.867188 163.632812 566.113281 C 188.878906 573.355469 203.527344 599.785156 196.285156 625.035156 C 192.777344 637.257812 184.714844 647.394531 173.589844 653.5625 C 166.421875 657.53125 158.539062 659.550781 150.566406 659.550781 Z M 155.449219 685.371094 C 155.96875 685.371094 156.449219 685.660156 156.683594 686.128906 L 164.996094 702.652344 L 180.289062 698.84375 L 179.871094 680.324219 C 179.859375 679.765625 180.179688 679.257812 180.6875 679.03125 C 184.410156 677.355469 188.023438 675.351562 191.421875 673.082031 C 191.882812 672.773438 192.484375 672.773438 192.945312 673.078125 L 208.429688 683.246094 L 219.769531 672.296875 L 210.164062 656.492188 C 209.875 656.015625 209.902344 655.417969 210.226562 654.96875 C 212.582031 651.699219 214.707031 648.148438 216.535156 644.425781 C 216.78125 643.925781 217.296875 643.621094 217.855469 643.65625 L 236.34375 644.722656 L 240.6875 629.574219 L 224.445312 620.675781 C 223.957031 620.40625 223.679688 619.875 223.734375 619.320312 C 224.160156 615.195312 224.242188 611.0625 223.972656 607.039062 C 223.9375 606.484375 224.234375 605.960938 224.730469 605.710938 L 241.253906 597.398438 L 237.441406 582.109375 L 218.921875 582.523438 C 218.363281 582.554688 217.859375 582.214844 217.632812 581.707031 C 215.953125 577.984375 213.953125 574.371094 211.683594 570.972656 C 211.375 570.515625 211.375 569.914062 211.675781 569.449219 L 221.847656 553.964844 L 210.898438 542.625 L 195.09375 552.234375 C 194.617188 552.519531 194.019531 552.496094 193.570312 552.171875 C 190.300781 549.8125 186.75 547.691406 183.027344 545.863281 C 182.527344 545.617188 182.226562 545.097656 182.257812 544.542969 L 183.320312 526.054688 L 168.171875 521.710938 L 159.273438 537.949219 C 159.007812 538.4375 158.484375 538.714844 157.921875 538.660156 C 153.792969 538.238281 149.65625 538.160156 145.640625 538.425781 C 145.050781 538.457031 144.5625 538.160156 144.316406 537.664062 L 136.003906 521.140625 L 120.710938 524.953125 L 121.125 543.476562 C 121.136719 544.03125 120.816406 544.535156 120.3125 544.761719 C 116.585938 546.441406 112.972656 548.445312 109.574219 550.714844 C 109.113281 551.019531 108.511719 551.019531 108.050781 550.71875 L 92.566406 540.554688 L 81.230469 551.496094 L 90.832031 567.304688 C 91.121094 567.777344 91.097656 568.378906 90.773438 568.828125 C 88.414062 572.097656 86.292969 575.644531 84.460938 579.367188 C 84.21875 579.867188 83.695312 580.171875 83.144531 580.136719 L 64.65625 579.078125 L 60.308594 594.222656 L 76.550781 603.121094 C 77.039062 603.386719 77.316406 603.921875 77.261719 604.476562 C 76.839844 608.601562 76.757812 612.730469 77.027344 616.761719 C 77.0625 617.3125 76.761719 617.832031 76.265625 618.085938 L 59.742188 626.394531 L 63.554688 641.6875 L 82.078125 641.269531 C 82.640625 641.242188 83.136719 641.578125 83.363281 642.085938 C 85.039062 645.804688 87.042969 649.421875 89.3125 652.820312 C 89.621094 653.28125 89.625 653.882812 89.320312 654.347656 L 79.152344 669.828125 L 90.097656 681.167969 L 105.90625 671.566406 C 106.378906 671.273438 106.980469 671.300781 107.429688 671.625 C 110.699219 673.980469 114.246094 676.105469 117.96875 677.933594 C 118.46875 678.179688 118.773438 678.699219 118.738281 679.253906 L 117.675781 697.742188 L 132.824219 702.085938 L 141.722656 685.84375 C 141.992188 685.355469 142.515625 685.078125 143.074219 685.136719 C 147.203125 685.558594 151.332031 685.636719 155.359375 685.375 C 155.390625 685.371094 155.421875 685.371094 155.449219 685.371094 Z M 164.257812 705.640625 C 163.746094 705.640625 163.265625 705.355469 163.023438 704.878906 L 154.625 688.179688 C 151.039062 688.375 147.371094 688.300781 143.707031 687.96875 L 134.714844 704.382812 C 134.40625 704.949219 133.746094 705.222656 133.125 705.046875 L 115.855469 700.09375 C 115.234375 699.917969 114.820312 699.328125 114.855469 698.683594 L 115.929688 680.003906 C 112.648438 678.339844 109.503906 676.460938 106.5625 674.394531 L 90.589844 684.101562 C 90.035156 684.4375 89.328125 684.34375 88.878906 683.878906 L 76.398438 670.953125 C 75.949219 670.492188 75.882812 669.773438 76.238281 669.238281 L 86.515625 653.589844 C 84.53125 650.542969 82.757812 647.339844 81.230469 644.050781 L 62.511719 644.472656 C 61.894531 644.507812 61.296875 644.050781 61.144531 643.429688 L 56.796875 625.992188 C 56.640625 625.367188 56.9375 624.714844 57.515625 624.425781 L 74.214844 616.023438 C 74.023438 612.4375 74.09375 608.769531 74.425781 605.109375 L 58.015625 596.117188 C 57.449219 595.804688 57.171875 595.144531 57.351562 594.523438 L 62.304688 577.253906 C 62.484375 576.632812 63.070312 576.21875 63.710938 576.253906 L 82.394531 577.332031 C 84.054688 574.046875 85.9375 570.902344 88 567.960938 L 78.296875 551.988281 C 77.960938 551.433594 78.054688 550.726562 78.515625 550.277344 L 91.441406 537.796875 C 91.90625 537.351562 92.621094 537.285156 93.160156 537.636719 L 108.804688 547.910156 C 111.847656 545.933594 115.050781 544.160156 118.34375 542.625 L 117.925781 523.914062 C 117.910156 523.265625 118.34375 522.695312 118.972656 522.542969 L 136.40625 518.199219 C 137.027344 518.039062 137.683594 518.339844 137.972656 518.914062 L 146.371094 535.613281 C 149.960938 535.421875 153.621094 535.492188 157.289062 535.824219 L 166.28125 519.414062 C 166.59375 518.847656 167.25 518.574219 167.875 518.746094 L 185.144531 523.703125 C 185.765625 523.882812 186.179688 524.464844 186.140625 525.109375 L 185.066406 543.792969 C 188.351562 545.453125 191.496094 547.335938 194.4375 549.402344 L 210.410156 539.695312 C 210.964844 539.359375 211.671875 539.453125 212.121094 539.914062 L 224.601562 552.839844 C 225.046875 553.308594 225.117188 554.019531 224.761719 554.558594 L 214.484375 570.207031 C 216.464844 573.25 218.238281 576.449219 219.769531 579.742188 L 238.484375 579.328125 C 239.105469 579.3125 239.699219 579.742188 239.855469 580.371094 L 244.199219 597.800781 C 244.355469 598.433594 244.058594 599.082031 243.480469 599.375 L 226.785156 607.773438 C 226.976562 611.363281 226.90625 615.027344 226.570312 618.6875 L 242.984375 627.683594 C 243.550781 627.992188 243.824219 628.652344 243.648438 629.273438 L 238.691406 646.542969 C 238.515625 647.164062 237.90625 647.585938 237.285156 647.542969 L 218.605469 646.464844 C 216.941406 649.75 215.0625 652.894531 212.996094 655.832031 L 222.703125 671.808594 C 223.039062 672.363281 222.945312 673.070312 222.480469 673.519531 L 209.554688 686 C 209.089844 686.449219 208.375 686.511719 207.839844 686.15625 L 192.191406 675.882812 C 189.144531 677.863281 185.945312 679.636719 182.652344 681.167969 L 183.074219 699.882812 C 183.085938 700.53125 182.652344 701.097656 182.027344 701.253906 L 164.589844 705.601562 C 164.480469 705.625 164.367188 705.640625 164.257812 705.640625 " fill-opacity="1" fill-rule="nonzero"/><path fill="#4070f4" d="M 469.460938 466.316406 C 476.882812 456.460938 427.964844 438.820312 428.628906 404.195312 C 429.230469 372.5625 470.496094 364.433594 469.285156 335.457031 C 467.984375 304.449219 420.082031 298.375 420.058594 266.765625 C 420.042969 242.40625 448.488281 238.734375 450.792969 212.675781 C 453.566406 181.367188 413.34375 177.207031 400.277344 135.867188 C 388.066406 97.253906 416.136719 78.699219 395.660156 48.125 C 392.988281 44.144531 376.375 20.367188 352.808594 20.019531 C 314.46875 19.449219 264.941406 80.996094 272.230469 134.25 C 278.371094 179.085938 320.203125 184.496094 322.648438 232.132812 C 324.722656 272.507812 295.21875 279.261719 304.816406 310.578125 C 316.179688 347.644531 361.289062 350.554688 370.570312 392.328125 C 375.433594 414.207031 364.585938 420.300781 373.484375 435.78125 C 392.273438 468.464844 461.28125 477.1875 469.460938 466.316406 " fill-opacity="1" fill-rule="nonzero"/><path fill="#99b9ff" d="M 453.886719 461.1875 C 453.746094 461.1875 453.609375 461.167969 453.472656 461.125 C 423.714844 451.902344 404.917969 438.882812 397.617188 422.425781 C 392.050781 409.863281 395.195312 399.773438 398.523438 389.09375 C 401.832031 378.519531 405.238281 367.582031 400.375 353.027344 C 395.21875 337.613281 385.941406 330.675781 376.964844 323.957031 C 368.136719 317.351562 359.792969 311.109375 356.066406 297.699219 C 350.789062 278.722656 360.613281 265.292969 370.113281 252.304688 C 379.191406 239.902344 388.574219 227.074219 384.980469 209.136719 C 382.078125 194.65625 372.582031 186.171875 362.53125 177.191406 C 351.558594 167.378906 339.109375 156.257812 333.273438 135.511719 C 328.941406 120.09375 329.390625 103.597656 334.617188 86.484375 C 334.835938 85.753906 335.609375 85.347656 336.339844 85.570312 C 337.070312 85.789062 337.476562 86.5625 337.253906 87.292969 C 332.1875 103.886719 331.742188 119.855469 335.9375 134.765625 C 341.550781 154.738281 353.15625 165.105469 364.375 175.132812 C 374.777344 184.429688 384.601562 193.210938 387.683594 208.589844 C 391.523438 227.722656 381.765625 241.054688 372.339844 253.941406 C 362.8125 266.96875 353.808594 279.269531 358.726562 296.957031 C 362.199219 309.460938 370.175781 315.429688 378.621094 321.746094 C 387.929688 328.71875 397.5625 335.917969 402.996094 352.152344 C 408.140625 367.550781 404.4375 379.433594 401.160156 389.921875 C 397.988281 400.089844 394.992188 409.695312 400.144531 421.304688 C 407.105469 437 425.324219 449.511719 454.292969 458.492188 C 455.023438 458.714844 455.429688 459.488281 455.203125 460.21875 C 455.019531 460.808594 454.472656 461.1875 453.886719 461.1875 " fill-opacity="1" fill-rule="nonzero"/><path fill="#4070f4" d="M 487.054688 600.859375 C 490.398438 593.238281 447.988281 581.851562 412.34375 528.191406 C 390.757812 495.703125 382.457031 463.976562 374.921875 434.191406 C 356.269531 360.492188 371.578125 346.054688 351.792969 311.761719 C 328.050781 270.597656 298.105469 286.445312 264.308594 244.058594 C 222.625 191.78125 253.808594 149.660156 211.089844 102.585938 C 187.746094 76.863281 146.261719 53.980469 109.804688 65.710938 C 87.742188 72.808594 64.683594 93.496094 64.082031 116.011719 C 63.5 137.746094 84.265625 145.003906 100.515625 171.472656 C 129.527344 218.726562 94.921875 247.039062 113.414062 294.929688 C 138.507812 359.921875 217.316406 346.824219 251.003906 424.269531 C 264.574219 455.464844 252.917969 460.183594 264.949219 489.972656 C 305.546875 590.503906 480.449219 615.917969 487.054688 600.859375 " fill-opacity="1" fill-rule="nonzero"/><path fill="#99b9ff" d="M 456.554688 597.699219 C 456.371094 597.699219 456.191406 597.667969 456.023438 597.589844 C 421.144531 582.96875 393.253906 565.6875 373.09375 546.25 C 356.761719 530.484375 345.082031 512.851562 338.394531 493.839844 C 331.398438 473.949219 330.613281 455.148438 329.847656 436.964844 C 328.710938 409.882812 327.632812 384.300781 306.125 358.46875 C 290.972656 340.273438 275.09375 333.054688 259.738281 326.082031 C 242.5 318.242188 226.21875 310.847656 215.015625 288.378906 C 207.226562 272.761719 207.085938 260.238281 206.921875 245.734375 C 206.761719 231.511719 206.582031 215.382812 199.5625 191.699219 C 192.613281 168.246094 181.429688 145.910156 166.332031 125.324219 C 165.882812 124.710938 166.011719 123.847656 166.628906 123.394531 C 167.242188 122.945312 168.105469 123.078125 168.558594 123.691406 C 183.847656 144.53125 195.167969 167.152344 202.210938 190.914062 C 209.339844 214.96875 209.523438 231.296875 209.683594 245.707031 C 209.847656 260.449219 209.980469 272.09375 217.488281 287.148438 C 228.253906 308.738281 243.375 315.609375 260.878906 323.5625 C 275.789062 330.339844 292.6875 338.019531 308.246094 356.703125 C 330.355469 383.246094 331.449219 409.289062 332.605469 436.847656 C 333.359375 454.832031 334.144531 473.421875 341.003906 492.921875 C 355.628906 534.511719 394.683594 568.871094 457.085938 595.046875 C 457.789062 595.34375 458.125 596.152344 457.828125 596.855469 C 457.601562 597.382812 457.089844 597.699219 456.554688 597.699219 " fill-opacity="1" fill-rule="nonzero"/><path fill="#000000" d="M 705.265625 605.9375 L 408.839844 605.9375 L 408.839844 17.183594 L 704.304688 17.183594 C 708.046875 17.183594 711.074219 20.210938 711.074219 23.957031 L 711.074219 600.128906 C 711.074219 603.332031 708.472656 605.9375 705.265625 605.9375 " fill-opacity="1" fill-rule="nonzero"/><path fill="#265df2" d="M 682.148438 606.4375 L 401.507812 606.4375 C 395.542969 606.4375 390.710938 601.605469 390.710938 595.636719 L 390.710938 28.992188 C 390.710938 23.027344 395.542969 18.1875 401.507812 18.1875 L 682.148438 18.1875 C 688.105469 18.1875 692.945312 23.027344 692.945312 28.992188 L 692.945312 595.636719 C 692.945312 601.605469 688.105469 606.4375 682.148438 606.4375 " fill-opacity="1" fill-rule="nonzero"/><path fill="#ffffff" d="M 482.863281 242.949219 L 444.179688 242.949219 C 443.144531 242.949219 442.308594 242.113281 442.308594 241.078125 L 442.308594 205.53125 C 442.308594 204.496094 443.144531 203.660156 444.179688 203.660156 L 482.863281 203.660156 C 483.898438 203.660156 484.742188 204.496094 484.742188 205.53125 L 484.742188 241.078125 C 484.742188 242.113281 483.898438 242.949219 482.863281 242.949219 " fill-opacity="1" fill-rule="nonzero"/><path fill="#ffffff" d="M 536.707031 242.949219 L 497.582031 242.949219 C 496.539062 242.949219 495.703125 242.113281 495.703125 241.078125 L 495.703125 205.53125 C 495.703125 204.496094 496.539062 203.660156 497.582031 203.660156 L 536.707031 203.660156 C 537.746094 203.660156 538.585938 204.496094 538.585938 205.53125 L 538.585938 241.078125 C 538.585938 242.113281 537.746094 242.949219 536.707031 242.949219 " fill-opacity="1" fill-rule="nonzero"/><path fill="#ffffff" d="M 590.21875 243.457031 L 551.980469 243.457031 C 550.945312 243.457031 550.109375 242.621094 550.109375 241.585938 L 550.109375 206.039062 C 550.109375 205.003906 550.945312 204.164062 551.980469 204.164062 L 590.21875 204.164062 C 591.253906 204.164062 592.09375 205.003906 592.09375 206.039062 L 592.09375 241.585938 C 592.09375 242.621094 591.253906 243.457031 590.21875 243.457031 " fill-opacity="1" fill-rule="nonzero"/><path fill="#ffffff" d="M 643.117188 243.453125 L 604.882812 243.453125 C 603.839844 243.453125 603.007812 242.613281 603.007812 241.582031 L 603.007812 206.035156 C 603.007812 205.003906 603.839844 204.164062 604.882812 204.164062 L 643.117188 204.164062 C 644.152344 204.164062 644.992188 205.003906 644.992188 206.035156 L 644.992188 241.582031 C 644.992188 242.613281 644.152344 243.453125 643.117188 243.453125 " fill-opacity="1" fill-rule="nonzero"/><path fill="#ffffff" d="M 482.863281 296.347656 L 444.175781 296.347656 C 443.140625 296.347656 442.304688 295.511719 442.304688 294.476562 L 442.304688 258.933594 C 442.304688 257.894531 443.140625 257.058594 444.175781 257.058594 L 482.863281 257.058594 C 483.894531 257.058594 484.738281 257.894531 484.738281 258.933594 L 484.738281 294.476562 C 484.738281 295.511719 483.894531 296.347656 482.863281 296.347656 " fill-opacity="1" fill-rule="nonzero"/><path fill="#ffffff" d="M 536.707031 296.347656 L 497.578125 296.347656 C 496.539062 296.347656 495.703125 295.511719 495.703125 294.476562 L 495.703125 258.933594 C 495.703125 257.894531 496.539062 257.058594 497.578125 257.058594 L 536.707031 257.058594 C 537.746094 257.058594 538.582031 257.894531 538.582031 258.933594 L 538.582031 294.476562 C 538.582031 295.511719 537.746094 296.347656 536.707031 296.347656 " fill-opacity="1" fill-rule="nonzero"/><path fill="#ffffff" d="M 590.21875 296.851562 L 551.976562 296.851562 C 550.945312 296.851562 550.105469 296.015625 550.105469 294.976562 L 550.105469 259.4375 C 550.105469 258.402344 550.945312 257.5625 551.976562 257.5625 L 590.21875 257.5625 C 591.253906 257.5625 592.09375 258.402344 592.09375 259.4375 L 592.09375 294.976562 C 592.09375 296.015625 591.253906 296.851562 590.21875 296.851562 " fill-opacity="1" fill-rule="nonzero"/><path fill="#ffffff" d="M 643.113281 296.851562 L 604.875 296.851562 C 603.839844 296.851562 603 296.015625 603 294.976562 L 603 259.4375 C 603 258.402344 603.839844 257.5625 604.875 257.5625 L 643.113281 257.5625 C 644.144531 257.5625 644.984375 258.402344 644.984375 259.4375 L 644.984375 294.976562 C 644.984375 296.015625 644.144531 296.851562 643.113281 296.851562 " fill-opacity="1" fill-rule="nonzero"/><path fill="#ffffff" d="M 483.953125 349.75 L 445.265625 349.75 C 444.230469 349.75 443.390625 348.914062 443.390625 347.878906 L 443.390625 312.335938 C 443.390625 311.296875 444.230469 310.460938 445.265625 310.460938 L 483.953125 310.460938 C 484.984375 310.460938 485.824219 311.296875 485.824219 312.335938 L 485.824219 347.878906 C 485.824219 348.914062 484.984375 349.75 483.953125 349.75 " fill-opacity="1" fill-rule="nonzero"/><path fill="#ffffff" d="M 536.886719 349.75 L 497.75 349.75 C 496.71875 349.75 495.878906 348.914062 495.878906 347.878906 L 495.878906 312.335938 C 495.878906 311.296875 496.71875 310.460938 497.75 310.460938 L 536.886719 310.460938 C 537.921875 310.460938 538.761719 311.296875 538.761719 312.335938 L 538.761719 347.878906 C 538.761719 348.914062 537.921875 349.75 536.886719 349.75 " fill-opacity="1" fill-rule="nonzero"/><path fill="#ffffff" d="M 591.292969 350.257812 L 553.054688 350.257812 C 552.019531 350.257812 551.183594 349.421875 551.183594 348.386719 L 551.183594 312.84375 C 551.183594 311.804688 552.019531 310.96875 553.054688 310.96875 L 591.292969 310.96875 C 592.328125 310.96875 593.164062 311.804688 593.164062 312.84375 L 593.164062 348.386719 C 593.164062 349.421875 592.328125 350.257812 591.292969 350.257812 " fill-opacity="1" fill-rule="nonzero"/><path fill="#ffffff" d="M 644.1875 350.257812 L 605.949219 350.257812 C 604.914062 350.257812 604.078125 349.417969 604.078125 348.382812 L 604.078125 312.835938 C 604.078125 311.800781 604.914062 310.960938 605.949219 310.960938 L 644.1875 310.960938 C 645.222656 310.960938 646.0625 311.800781 646.0625 312.835938 L 646.0625 348.382812 C 646.0625 349.417969 645.222656 350.257812 644.1875 350.257812 " fill-opacity="1" fill-rule="nonzero"/><path fill="#ffffff" d="M 483.953125 403.152344 L 445.265625 403.152344 C 444.226562 403.152344 443.390625 402.308594 443.390625 401.277344 L 443.390625 365.730469 C 443.390625 364.699219 444.226562 363.855469 445.265625 363.855469 L 483.953125 363.855469 C 484.984375 363.855469 485.824219 364.699219 485.824219 365.730469 L 485.824219 401.277344 C 485.824219 402.308594 484.984375 403.152344 483.953125 403.152344 " fill-opacity="1" fill-rule="nonzero"/><path fill="#ffffff" d="M 537.808594 403.152344 L 498.671875 403.152344 C 497.636719 403.152344 496.796875 402.308594 496.796875 401.277344 L 496.796875 365.730469 C 496.796875 364.699219 497.636719 363.855469 498.671875 363.855469 L 537.808594 363.855469 C 538.839844 363.855469 539.683594 364.699219 539.683594 365.730469 L 539.683594 401.277344 C 539.683594 402.308594 538.839844 403.152344 537.808594 403.152344 " fill-opacity="1" fill-rule="nonzero"/><path fill="#ffffff" d="M 591.292969 403.65625 L 553.054688 403.65625 C 552.019531 403.65625 551.183594 402.8125 551.183594 401.78125 L 551.183594 366.238281 C 551.183594 365.203125 552.019531 364.363281 553.054688 364.363281 L 591.292969 364.363281 C 592.324219 364.363281 593.164062 365.203125 593.164062 366.238281 L 593.164062 401.78125 C 593.164062 402.8125 592.324219 403.65625 591.292969 403.65625 " fill-opacity="1" fill-rule="nonzero"/><path fill="#ffffff" d="M 644.1875 403.65625 L 605.949219 403.65625 C 604.914062 403.65625 604.074219 402.8125 604.074219 401.78125 L 604.074219 366.234375 C 604.074219 365.199219 604.914062 364.359375 605.949219 364.359375 L 644.1875 364.359375 C 645.222656 364.359375 646.0625 365.199219 646.0625 366.234375 L 646.0625 401.78125 C 646.0625 402.8125 645.222656 403.65625 644.1875 403.65625 " fill-opacity="1" fill-rule="nonzero"/><path fill="#4070f4" d="M 476.789062 244.53125 L 444.957031 244.53125 C 442.894531 244.53125 441.222656 242.863281 441.222656 240.804688 L 441.222656 208.972656 C 441.222656 206.910156 442.894531 205.238281 444.957031 205.238281 L 476.789062 205.238281 C 478.847656 205.238281 480.519531 206.910156 480.519531 208.972656 L 480.519531 240.804688 C 480.519531 242.863281 478.847656 244.53125 476.789062 244.53125 " fill-opacity="1" fill-rule="nonzero"/><path fill="#4070f4" d="M 530.183594 244.53125 L 498.351562 244.53125 C 496.292969 244.53125 494.625 242.863281 494.625 240.804688 L 494.625 208.972656 C 494.625 206.910156 496.292969 205.238281 498.351562 205.238281 L 530.183594 205.238281 C 532.246094 205.238281 533.910156 206.910156 533.910156 208.972656 L 533.910156 240.804688 C 533.910156 242.863281 532.246094 244.53125 530.183594 244.53125 " fill-opacity="1" fill-rule="nonzero"/><path fill="#4070f4" d="M 584.59375 245.035156 L 552.757812 245.035156 C 550.699219 245.035156 549.03125 243.367188 549.03125 241.308594 L 549.03125 209.472656 C 549.03125 207.414062 550.699219 205.742188 552.757812 205.742188 L 584.59375 205.742188 C 586.648438 205.742188 588.320312 207.414062 588.320312 209.472656 L 588.320312 241.308594 C 588.320312 243.367188 586.648438 245.035156 584.59375 245.035156 " fill-opacity="1" fill-rule="nonzero"/><path fill="#4070f4" d="M 637.488281 245.03125 L 605.652344 245.03125 C 603.597656 245.03125 601.929688 243.363281 601.929688 241.304688 L 601.929688 209.472656 C 601.929688 207.410156 603.597656 205.738281 605.652344 205.738281 L 637.488281 205.738281 C 639.546875 205.738281 641.214844 207.410156 641.214844 209.472656 L 641.214844 241.304688 C 641.214844 243.363281 639.546875 245.03125 637.488281 245.03125 " fill-opacity="1" fill-rule="nonzero"/><path fill="#4070f4" d="M 476.789062 297.925781 L 444.957031 297.925781 C 442.894531 297.925781 441.226562 296.257812 441.226562 294.199219 L 441.226562 262.363281 C 441.226562 260.304688 442.894531 258.636719 444.957031 258.636719 L 476.789062 258.636719 C 478.84375 258.636719 480.515625 260.304688 480.515625 262.363281 L 480.515625 294.199219 C 480.515625 296.257812 478.84375 297.925781 476.789062 297.925781 " fill-opacity="1" fill-rule="nonzero"/><path fill="#4070f4" d="M 530.183594 297.925781 L 498.351562 297.925781 C 496.292969 297.925781 494.625 296.257812 494.625 294.199219 L 494.625 262.363281 C 494.625 260.304688 496.292969 258.636719 498.351562 258.636719 L 530.183594 258.636719 C 532.246094 258.636719 533.914062 260.304688 533.914062 262.363281 L 533.914062 294.199219 C 533.914062 296.257812 532.246094 297.925781 530.183594 297.925781 " fill-opacity="1" fill-rule="nonzero"/><path fill="#4070f4" d="M 584.589844 298.433594 L 552.757812 298.433594 C 550.695312 298.433594 549.027344 296.765625 549.027344 294.703125 L 549.027344 262.871094 C 549.027344 260.8125 550.695312 259.140625 552.757812 259.140625 L 584.589844 259.140625 C 586.648438 259.140625 588.320312 260.8125 588.320312 262.871094 L 588.320312 294.703125 C 588.320312 296.765625 586.648438 298.433594 584.589844 298.433594 " fill-opacity="1" fill-rule="nonzero"/><path fill="#4070f4" d="M 637.488281 298.429688 L 605.652344 298.429688 C 603.59375 298.429688 601.921875 296.761719 601.921875 294.699219 L 601.921875 262.867188 C 601.921875 260.808594 603.59375 259.136719 605.652344 259.136719 L 637.488281 259.136719 C 639.546875 259.136719 641.214844 260.808594 641.214844 262.867188 L 641.214844 294.699219 C 641.214844 296.761719 639.546875 298.429688 637.488281 298.429688 " fill-opacity="1" fill-rule="nonzero"/><path fill="#4070f4" d="M 477.796875 351.332031 L 445.960938 351.332031 C 443.902344 351.332031 442.234375 349.660156 442.234375 347.597656 L 442.234375 315.765625 C 442.234375 313.710938 443.902344 312.039062 445.960938 312.039062 L 477.796875 312.039062 C 479.855469 312.039062 481.523438 313.710938 481.523438 315.765625 L 481.523438 347.597656 C 481.523438 349.660156 479.855469 351.332031 477.796875 351.332031 " fill-opacity="1" fill-rule="nonzero"/><path fill="#4070f4" d="M 531.191406 351.332031 L 499.359375 351.332031 C 497.300781 351.332031 495.632812 349.660156 495.632812 347.597656 L 495.632812 315.765625 C 495.632812 313.710938 497.300781 312.039062 499.359375 312.039062 L 531.191406 312.039062 C 533.25 312.039062 534.921875 313.710938 534.921875 315.765625 L 534.921875 347.597656 C 534.921875 349.660156 533.25 351.332031 531.191406 351.332031 " fill-opacity="1" fill-rule="nonzero"/><path fill="#4070f4" d="M 585.601562 351.832031 L 553.765625 351.832031 C 551.703125 351.832031 550.035156 350.164062 550.035156 348.101562 L 550.035156 316.269531 C 550.035156 314.210938 551.703125 312.539062 553.765625 312.539062 L 585.601562 312.539062 C 587.664062 312.539062 589.332031 314.210938 589.332031 316.269531 L 589.332031 348.101562 C 589.332031 350.164062 587.664062 351.832031 585.601562 351.832031 " fill-opacity="1" fill-rule="nonzero"/><path fill="#4070f4" d="M 638.492188 351.835938 L 606.660156 351.835938 C 604.597656 351.835938 602.929688 350.164062 602.929688 348.105469 L 602.929688 316.273438 C 602.929688 314.210938 604.597656 312.542969 606.660156 312.542969 L 638.492188 312.542969 C 640.550781 312.542969 642.222656 314.210938 642.222656 316.273438 L 642.222656 348.105469 C 642.222656 350.164062 640.550781 351.835938 638.492188 351.835938 " fill-opacity="1" fill-rule="nonzero"/><path fill="#4070f4" d="M 477.792969 404.730469 L 445.960938 404.730469 C 443.898438 404.730469 442.230469 403.058594 442.230469 401 L 442.230469 369.164062 C 442.230469 367.105469 443.898438 365.433594 445.960938 365.433594 L 477.792969 365.433594 C 479.855469 365.433594 481.523438 367.105469 481.523438 369.164062 L 481.523438 401 C 481.523438 403.058594 479.855469 404.730469 477.792969 404.730469 " fill-opacity="1" fill-rule="nonzero"/><path fill="#4070f4" d="M 531.191406 404.730469 L 499.359375 404.730469 C 497.296875 404.730469 495.628906 403.058594 495.628906 401 L 495.628906 369.164062 C 495.628906 367.105469 497.296875 365.433594 499.359375 365.433594 L 531.191406 365.433594 C 533.25 365.433594 534.921875 367.105469 534.921875 369.164062 L 534.921875 401 C 534.921875 403.058594 533.25 404.730469 531.191406 404.730469 " fill-opacity="1" fill-rule="nonzero"/><path fill="#4070f4" d="M 585.601562 405.230469 L 553.765625 405.230469 C 551.703125 405.230469 550.035156 403.5625 550.035156 401.5 L 550.035156 369.671875 C 550.035156 367.609375 551.703125 365.941406 553.765625 365.941406 L 585.601562 365.941406 C 587.664062 365.941406 589.332031 367.609375 589.332031 369.671875 L 589.332031 401.5 C 589.332031 403.5625 587.664062 405.230469 585.601562 405.230469 " fill-opacity="1" fill-rule="nonzero"/><path fill="#4070f4" d="M 638.492188 405.234375 L 606.664062 405.234375 C 604.601562 405.234375 602.929688 403.558594 602.929688 401.5 L 602.929688 369.671875 C 602.929688 367.609375 604.601562 365.9375 606.664062 365.9375 L 638.492188 365.9375 C 640.554688 365.9375 642.222656 367.609375 642.222656 369.671875 L 642.222656 401.5 C 642.222656 403.558594 640.554688 405.234375 638.492188 405.234375 " fill-opacity="1" fill-rule="nonzero"/><path fill="#265df2" d="M 572.675781 444.035156 L 518.613281 444.035156 C 517.964844 444.035156 517.433594 443.507812 517.433594 442.851562 L 517.433594 419.105469 C 517.433594 418.449219 517.964844 417.921875 518.613281 417.921875 L 572.675781 417.921875 C 573.328125 417.921875 573.855469 418.449219 573.855469 419.105469 L 573.855469 442.851562 C 573.855469 443.507812 573.328125 444.035156 572.675781 444.035156 " fill-opacity="1" fill-rule="nonzero"/><path fill="#000000" d="M 402.703125 19.570312 C 396.847656 19.570312 392.085938 24.332031 392.085938 30.183594 L 392.085938 594.445312 C 392.085938 600.296875 396.847656 605.058594 402.703125 605.058594 L 680.949219 605.058594 C 686.800781 605.058594 691.5625 600.296875 691.5625 594.445312 L 691.5625 30.183594 C 691.5625 24.332031 686.800781 19.570312 680.949219 19.570312 Z M 680.949219 607.816406 L 402.703125 607.816406 C 395.328125 607.816406 389.324219 601.820312 389.324219 594.445312 L 389.324219 30.183594 C 389.324219 22.8125 395.328125 16.808594 402.703125 16.808594 L 680.949219 16.808594 C 688.320312 16.808594 694.324219 22.8125 694.324219 30.183594 L 694.324219 594.445312 C 694.324219 601.820312 688.320312 607.816406 680.949219 607.816406 " fill-opacity="1" fill-rule="nonzero"/><path fill="#4070f4" d="M 584.613281 612.492188 L 509.585938 612.492188 C 508.796875 612.492188 508.160156 611.855469 508.160156 611.066406 L 508.160156 491.726562 C 508.160156 488.8125 510.519531 486.445312 513.4375 486.445312 L 582.429688 486.445312 C 584.539062 486.445312 586.25 488.160156 586.25 490.269531 L 586.25 610.859375 C 586.25 611.761719 585.515625 612.492188 584.613281 612.492188 " fill-opacity="1" fill-rule="nonzero"/><path fill="#000000" d="M 519.828125 487.828125 C 514.15625 487.828125 509.539062 492.445312 509.539062 498.121094 L 509.539062 609.339844 C 509.539062 610.320312 510.335938 611.113281 511.304688 611.113281 L 582.632812 611.113281 C 583.863281 611.113281 584.867188 610.109375 584.867188 608.882812 L 584.867188 494.898438 C 584.867188 491 581.699219 487.828125 577.796875 487.828125 Z M 582.632812 613.875 L 511.304688 613.875 C 508.8125 613.875 506.777344 611.84375 506.777344 609.339844 L 506.777344 498.121094 C 506.777344 490.925781 512.628906 485.070312 519.828125 485.070312 L 577.796875 485.070312 C 583.214844 485.070312 587.625 489.476562 587.625 494.898438 L 587.625 608.882812 C 587.625 611.632812 585.386719 613.875 582.632812 613.875 " fill-opacity="1" fill-rule="nonzero"/><path fill="#265df2" d="M 560.550781 542.394531 L 532.117188 542.394531 C 530.8125 542.394531 529.757812 541.339844 529.757812 540.039062 L 529.757812 511.601562 C 529.757812 510.296875 530.8125 509.242188 532.117188 509.242188 L 560.550781 509.242188 C 561.855469 509.242188 562.914062 510.296875 562.914062 511.601562 L 562.914062 540.039062 C 562.914062 541.339844 561.855469 542.394531 560.550781 542.394531 " fill-opacity="1" fill-rule="nonzero"/><path fill="#ffffff" d="M 534.96875 510.621094 C 532.859375 510.621094 531.140625 512.339844 531.140625 514.457031 L 531.140625 537.179688 C 531.140625 539.296875 532.859375 541.015625 534.96875 541.015625 L 557.699219 541.015625 C 559.808594 541.015625 561.53125 539.296875 561.53125 537.179688 L 561.53125 514.457031 C 561.53125 512.339844 559.808594 510.621094 557.699219 510.621094 Z M 557.699219 543.777344 L 534.96875 543.777344 C 531.335938 543.777344 528.378906 540.820312 528.378906 537.179688 L 528.378906 514.457031 C 528.378906 510.820312 531.335938 507.859375 534.96875 507.859375 L 557.699219 507.859375 C 561.335938 507.859375 564.289062 510.820312 564.289062 514.457031 L 564.289062 537.179688 C 564.289062 540.820312 561.335938 543.777344 557.699219 543.777344 " fill-opacity="1" fill-rule="nonzero"/><path fill="#4070f4" d="M 647.96875 185.441406 L 437.605469 185.441406 C 435.882812 185.441406 434.480469 184.042969 434.480469 182.316406 L 434.480469 55.578125 C 434.480469 53.847656 435.882812 52.453125 437.605469 52.453125 L 647.96875 52.453125 C 649.691406 52.453125 651.089844 53.847656 651.089844 55.578125 L 651.089844 182.316406 C 651.089844 184.042969 649.691406 185.441406 647.96875 185.441406 " fill-opacity="1" fill-rule="nonzero"/><path fill="#ffffff" d="M 441.386719 53.828125 C 438.339844 53.828125 435.859375 56.308594 435.859375 59.351562 L 435.859375 178.53125 C 435.859375 181.582031 438.339844 184.0625 441.386719 184.0625 L 644.191406 184.0625 C 647.238281 184.0625 649.71875 181.582031 649.71875 178.53125 L 649.71875 59.351562 C 649.71875 56.308594 647.238281 53.828125 644.191406 53.828125 Z M 644.191406 186.824219 L 441.386719 186.824219 C 436.816406 186.824219 433.101562 183.101562 433.101562 178.53125 L 433.101562 59.351562 C 433.101562 54.789062 436.816406 51.066406 441.386719 51.066406 L 644.191406 51.066406 C 648.761719 51.066406 652.480469 54.789062 652.480469 59.351562 L 652.480469 178.53125 C 652.480469 183.101562 648.761719 186.824219 644.191406 186.824219 " fill-opacity="1" fill-rule="nonzero"/><path fill="#99b9ff" d="M 497.964844 57.21875 L 443.65625 179.636719 L 476.332031 180.445312 L 526.5 57.21875 L 497.964844 57.21875 " fill-opacity="1" fill-rule="nonzero"/><path fill="#99b9ff" d="M 493.363281 180.097656 L 542.144531 58.132812 L 551.351562 58.132812 L 501.648438 180.554688 L 493.363281 180.097656 " fill-opacity="1" fill-rule="nonzero"/><path fill="#99b9ff" d="M 580.804688 179.640625 L 628.667969 57.214844 L 637.765625 56.96875 C 641.851562 56.851562 645.222656 60.144531 645.207031 64.230469 L 644.789062 174.136719 C 644.785156 176.925781 642.527344 179.195312 639.738281 179.214844 L 580.804688 179.640625 " fill-opacity="1" fill-rule="nonzero"/><path fill="#000000" d="M 494.296875 123.945312 C 494.296875 129.285156 489.972656 133.617188 484.628906 133.617188 C 479.292969 133.617188 474.964844 129.285156 474.964844 123.945312 C 474.964844 118.609375 479.292969 114.28125 484.628906 114.28125 C 489.972656 114.28125 494.296875 118.609375 494.296875 123.945312 " fill-opacity="1" fill-rule="nonzero"/><path fill="#000000" d="M 524.671875 123.484375 C 524.671875 128.828125 520.34375 133.148438 515.007812 133.148438 C 509.671875 133.148438 505.34375 128.828125 505.34375 123.484375 C 505.34375 118.152344 509.671875 113.820312 515.007812 113.820312 C 520.34375 113.820312 524.671875 118.152344 524.671875 123.484375 " fill-opacity="1" fill-rule="nonzero"/><path fill="#000000" d="M 555.503906 123.03125 C 555.503906 128.371094 551.175781 132.695312 545.839844 132.695312 C 540.5 132.695312 536.175781 128.371094 536.175781 123.03125 C 536.175781 117.695312 540.5 113.367188 545.839844 113.367188 C 551.175781 113.367188 555.503906 117.695312 555.503906 123.03125 " fill-opacity="1" fill-rule="nonzero"/><path fill="#000000" d="M 585.878906 122.570312 C 585.878906 127.90625 581.554688 132.234375 576.210938 132.234375 C 570.875 132.234375 566.554688 127.90625 566.554688 122.570312 C 566.554688 117.234375 570.875 112.90625 576.210938 112.90625 C 581.554688 112.90625 585.878906 117.234375 585.878906 122.570312 " fill-opacity="1" fill-rule="nonzero"/><path fill="#000000" d="M 615.792969 121.648438 C 615.792969 126.988281 611.464844 131.308594 606.128906 131.308594 C 600.792969 131.308594 596.464844 126.988281 596.464844 121.648438 C 596.464844 116.3125 600.792969 111.980469 606.128906 111.980469 C 611.464844 111.980469 615.792969 116.3125 615.792969 121.648438 " fill-opacity="1" fill-rule="nonzero"/><path fill="#000000" d="M 435.796875 733.152344 C 435.117188 733.152344 434.519531 732.640625 434.433594 731.941406 C 434.332031 731.183594 434.871094 730.496094 435.632812 730.398438 C 515.828125 720.378906 601.933594 654.53125 602.800781 653.867188 C 603.402344 653.402344 604.269531 653.515625 604.734375 654.117188 C 605.203125 654.722656 605.085938 655.589844 604.484375 656.054688 C 603.617188 656.722656 516.914062 723.03125 435.972656 733.140625 C 435.914062 733.148438 435.855469 733.152344 435.796875 733.152344 " fill-opacity="1" fill-rule="nonzero"/><path fill="#000000" d="M 428.875 747.511719 C 428.136719 747.511719 427.53125 746.9375 427.5 746.195312 C 427.460938 745.433594 428.050781 744.785156 428.808594 744.75 C 491.46875 741.863281 572.847656 691.117188 573.664062 690.605469 C 574.308594 690.203125 575.160156 690.394531 575.566406 691.039062 C 575.972656 691.683594 575.78125 692.539062 575.132812 692.941406 C 574.3125 693.457031 492.316406 744.589844 428.9375 747.511719 C 428.917969 747.511719 428.898438 747.511719 428.875 747.511719 " fill-opacity="1" fill-rule="nonzero"/><path fill="#000000" d="M 418.8125 738.101562 C 420.5 739.753906 423.207031 739.71875 424.847656 738.039062 C 426.496094 736.359375 426.464844 733.652344 424.785156 732.003906 C 423.097656 730.359375 420.390625 730.390625 418.75 732.070312 C 417.101562 733.75 417.132812 736.457031 418.8125 738.101562 Z M 421.800781 742.078125 C 420.023438 742.078125 418.246094 741.414062 416.886719 740.078125 C 414.113281 737.367188 414.066406 732.910156 416.777344 730.136719 C 419.488281 727.367188 423.945312 727.324219 426.71875 730.03125 C 429.484375 732.738281 429.53125 737.199219 426.820312 739.96875 C 425.445312 741.378906 423.621094 742.078125 421.800781 742.078125 " fill-opacity="1" fill-rule="nonzero"/><path fill="#000000" d="M 614.347656 635.933594 L 620.382812 648.175781 L 629.214844 634.601562 Z M 620.21875 652.34375 C 620.191406 652.34375 620.164062 652.339844 620.132812 652.339844 C 619.640625 652.3125 619.199219 652.019531 618.976562 651.574219 L 610.980469 635.34375 C 610.777344 634.9375 610.792969 634.453125 611.011719 634.058594 C 611.234375 633.664062 611.640625 633.402344 612.09375 633.359375 L 631.800781 631.597656 C 632.328125 631.550781 632.835938 631.808594 633.105469 632.257812 C 633.378906 632.714844 633.367188 633.285156 633.082031 633.726562 L 621.371094 651.714844 C 621.121094 652.105469 620.679688 652.34375 620.21875 652.34375 " fill-opacity="1" fill-rule="nonzero"/><path fill="#000000" d="M 730.402344 185.976562 C 730.042969 185.976562 729.695312 185.84375 729.429688 185.574219 C 728.882812 185.035156 728.882812 184.15625 729.429688 183.621094 L 732.636719 180.40625 C 733.175781 179.871094 734.046875 179.871094 734.589844 180.40625 C 735.125 180.949219 735.125 181.824219 734.589844 182.359375 L 731.378906 185.574219 C 731.109375 185.84375 730.753906 185.976562 730.402344 185.976562 " fill-opacity="1" fill-rule="nonzero"/><path fill="#000000" d="M 742.53125 173.847656 C 742.179688 173.847656 741.828125 173.710938 741.558594 173.441406 C 741.015625 172.902344 741.015625 172.027344 741.558594 171.488281 L 744.769531 168.277344 C 745.308594 167.738281 746.183594 167.738281 746.722656 168.277344 C 747.261719 168.820312 747.261719 169.691406 746.722656 170.230469 L 743.511719 173.441406 C 743.238281 173.710938 742.886719 173.847656 742.53125 173.847656 " fill-opacity="1" fill-rule="nonzero"/><path fill="#000000" d="M 745.746094 185.972656 C 745.390625 185.972656 745.039062 185.839844 744.769531 185.570312 L 741.558594 182.359375 C 741.015625 181.820312 741.015625 180.945312 741.558594 180.40625 C 742.09375 179.867188 742.96875 179.867188 743.511719 180.40625 L 746.722656 183.617188 C 747.261719 184.15625 747.261719 185.03125 746.722656 185.570312 C 746.449219 185.839844 746.101562 185.972656 745.746094 185.972656 " fill-opacity="1" fill-rule="nonzero"/><path fill="#000000" d="M 733.609375 173.847656 C 733.257812 173.847656 732.90625 173.707031 732.636719 173.441406 L 729.429688 170.230469 C 728.882812 169.691406 728.882812 168.820312 729.429688 168.277344 C 729.960938 167.738281 730.839844 167.738281 731.378906 168.277344 L 734.589844 171.488281 C 735.125 172.027344 735.125 172.90625 734.589844 173.441406 C 734.316406 173.707031 733.964844 173.847656 733.609375 173.847656 " fill-opacity="1" fill-rule="nonzero"/><path fill="#000000" d="M 68.414062 321.648438 C 68.222656 321.648438 68.03125 321.605469 67.84375 321.523438 C 67.148438 321.207031 66.84375 320.386719 67.160156 319.695312 L 69.042969 315.558594 C 69.359375 314.867188 70.175781 314.558594 70.871094 314.875 C 71.566406 315.191406 71.871094 316.007812 71.554688 316.703125 L 69.671875 320.839844 C 69.441406 321.347656 68.9375 321.648438 68.414062 321.648438 " fill-opacity="1" fill-rule="nonzero"/><path fill="#000000" d="M 75.527344 306.035156 C 75.335938 306.035156 75.140625 305.992188 74.957031 305.910156 C 74.261719 305.59375 73.957031 304.773438 74.269531 304.078125 L 76.152344 299.945312 C 76.472656 299.25 77.289062 298.945312 77.984375 299.265625 C 78.675781 299.582031 78.980469 300.394531 78.667969 301.09375 L 76.785156 305.222656 C 76.550781 305.730469 76.050781 306.035156 75.527344 306.035156 " fill-opacity="1" fill-rule="nonzero"/><path fill="#000000" d="M 82.785156 316.269531 C 82.59375 316.269531 82.398438 316.230469 82.214844 316.144531 L 78.082031 314.261719 C 77.386719 313.949219 77.082031 313.125 77.394531 312.433594 C 77.714844 311.742188 78.53125 311.4375 79.226562 311.75 L 83.359375 313.628906 C 84.050781 313.949219 84.359375 314.769531 84.042969 315.460938 C 83.8125 315.972656 83.308594 316.269531 82.785156 316.269531 " fill-opacity="1" fill-rule="nonzero"/><path fill="#000000" d="M 67.171875 309.160156 C 66.980469 309.160156 66.785156 309.117188 66.601562 309.035156 L 62.464844 307.152344 C 61.773438 306.835938 61.46875 306.019531 61.785156 305.324219 C 62.101562 304.628906 62.917969 304.324219 63.613281 304.640625 L 67.746094 306.523438 C 68.441406 306.839844 68.746094 307.65625 68.429688 308.351562 C 68.199219 308.859375 67.695312 309.160156 67.171875 309.160156 " fill-opacity="1" fill-rule="nonzero"/><path fill="#000000" d="M 109.757812 360.683594 C 107.375 360.683594 105.433594 362.621094 105.433594 365.007812 C 105.433594 367.386719 107.375 369.324219 109.757812 369.324219 C 112.140625 369.324219 114.078125 367.386719 114.078125 365.007812 C 114.078125 362.621094 112.140625 360.683594 109.757812 360.683594 Z M 109.757812 372.089844 C 105.851562 372.089844 102.675781 368.910156 102.675781 365.007812 C 102.675781 361.097656 105.851562 357.921875 109.757812 357.921875 C 113.664062 357.921875 116.839844 361.097656 116.839844 365.007812 C 116.839844 368.910156 113.664062 372.089844 109.757812 372.089844 " fill-opacity="1" fill-rule="nonzero"/><path fill="#265df2" d="M 233.90625 581.25 C 216.445312 605.449219 203.109375 646.820312 192.9375 694.925781 C 192.265625 698.097656 184.679688 753.949219 187.769531 754.917969 C 252.203125 775.167969 256.804688 775.167969 300.0625 777.929688 C 310.976562 778.628906 357.136719 777.929688 389.128906 777.023438 C 391.90625 776.949219 394.292969 775.148438 394.144531 772.375 C 390.175781 699.597656 383.265625 611.847656 383.265625 611.847656 L 233.90625 581.25 " fill-opacity="1" fill-rule="nonzero"/><path fill="#ffffff" d="M 420.480469 400.226562 C 420.480469 400.226562 460.855469 427.398438 479.726562 422.28125 C 506.28125 415.078125 517.96875 347.433594 519.113281 341.425781 C 520.253906 335.421875 525.375 304.972656 530.675781 293.609375 C 535.667969 282.933594 538.703125 272.003906 540.300781 265.28125 C 541.269531 261.230469 544.023438 259.273438 546.761719 259.691406 C 549.160156 260.054688 550.757812 261.9375 549.40625 267.980469 C 547.839844 274.964844 546.453125 281.992188 545.171875 287.96875 C 544.773438 289.847656 544.007812 291.625 545.332031 290.289062 C 548.414062 287.175781 553.398438 283.710938 558.429688 282.027344 C 560.632812 281.289062 578.238281 262.214844 582.921875 264.554688 C 587.105469 266.652344 563.242188 292.789062 564.199219 295.914062 C 566.558594 303.617188 565.210938 313.914062 561.472656 323.207031 C 555.105469 339.023438 544.9375 337.246094 543.171875 344.699219 C 541.417969 352.148438 532.238281 446.640625 524.898438 463.9375 C 514.34375 488.8125 413.082031 470.65625 413.082031 470.65625 L 420.480469 400.226562 " fill-opacity="1" fill-rule="nonzero"/><path fill="#000000" d="M 414.589844 469.519531 C 420.03125 470.441406 442.222656 474.019531 465.125 475.253906 C 499.328125 477.082031 519.558594 472.984375 523.625 463.398438 C 528.773438 451.277344 534.953125 399.640625 538.644531 368.796875 C 540.191406 355.914062 541.304688 346.609375 541.828125 344.382812 C 542.703125 340.691406 545.273438 338.984375 548.253906 337.003906 C 552.007812 334.511719 556.683594 331.40625 560.1875 322.691406 C 564.023438 313.171875 565.027344 303.3125 562.878906 296.316406 C 562.3125 294.46875 564.644531 291.113281 571.445312 282.003906 C 575.371094 276.746094 581.839844 268.074219 582.035156 265.707031 C 579.191406 265.25 568.863281 274.722656 564.894531 278.363281 C 561.058594 281.878906 559.742188 283.042969 558.863281 283.335938 C 553.667969 285.078125 548.851562 288.695312 546.3125 291.261719 C 545.964844 291.613281 545.03125 292.550781 543.96875 291.941406 C 542.886719 291.324219 543.1875 290.195312 543.527344 288.882812 C 543.628906 288.511719 543.734375 288.101562 543.820312 287.675781 C 544.296875 285.472656 544.785156 283.121094 545.289062 280.683594 C 546.164062 276.457031 547.070312 272.089844 548.054688 267.679688 C 548.859375 264.097656 548.472656 262.527344 548.003906 261.847656 C 547.824219 261.574219 547.46875 261.195312 546.550781 261.054688 C 544.34375 260.71875 542.375 262.546875 541.648438 265.605469 C 539.917969 272.855469 536.832031 283.703125 531.925781 294.199219 C 527.292969 304.113281 522.722656 329.289062 521.003906 338.761719 C 520.777344 340.011719 520.59375 341.003906 520.464844 341.683594 L 520.320312 342.472656 C 516.195312 364.707031 504.019531 417.125 480.082031 423.613281 C 478.355469 424.085938 476.453125 424.296875 474.4375 424.296875 C 456.546875 424.300781 429.132812 407.464844 421.617188 402.621094 Z M 479.457031 478.429688 C 449.1875 478.433594 415.253906 472.453125 412.835938 472.019531 L 411.574219 471.789062 L 419.347656 397.796875 L 421.253906 399.078125 C 421.648438 399.347656 461.324219 425.847656 479.367188 420.945312 C 502.414062 414.695312 514.460938 358.917969 517.605469 341.96875 L 517.753906 341.167969 C 517.882812 340.492188 518.0625 339.503906 518.289062 338.265625 C 520.023438 328.695312 524.644531 303.269531 529.425781 293.027344 C 534.230469 282.742188 537.261719 272.089844 538.957031 264.964844 C 540.023438 260.5 543.316406 257.769531 546.96875 258.324219 C 548.429688 258.550781 549.550781 259.210938 550.289062 260.289062 C 551.429688 261.960938 551.582031 264.578125 550.753906 268.28125 C 549.769531 272.675781 548.867188 277.027344 547.992188 281.242188 C 547.574219 283.273438 547.164062 285.246094 546.769531 287.128906 C 549.695312 284.707031 553.6875 282.160156 557.992188 280.71875 C 558.527344 280.453125 560.917969 278.261719 563.027344 276.328125 C 572.324219 267.800781 579.742188 261.425781 583.535156 263.324219 C 584.140625 263.621094 584.558594 264.160156 584.714844 264.832031 C 585.367188 267.574219 581.664062 272.925781 573.660156 283.65625 C 570.347656 288.089844 565.835938 294.128906 565.5625 295.648438 C 567.828125 303.214844 566.789062 313.695312 562.75 323.722656 C 558.929688 333.230469 553.640625 336.738281 549.78125 339.304688 C 547.089844 341.097656 545.136719 342.386719 544.519531 345.015625 C 544.027344 347.09375 542.867188 356.8125 541.390625 369.125 C 537.679688 400.117188 531.464844 451.992188 526.164062 464.476562 C 521.589844 475.257812 501.492188 478.429688 479.457031 478.429688 " fill-opacity="1" fill-rule="nonzero"/><path fill="#000000" d="M 250.5625 363.457031 C 299.230469 341.746094 393.285156 346.246094 459.269531 417.058594 C 467.027344 425.382812 444.617188 488.191406 424.632812 483.871094 C 406.972656 480.046875 392.574219 475.628906 391.230469 485.859375 C 389.363281 499.988281 402.035156 613.199219 383.585938 645.125 C 350.628906 702.167969 252.332031 693.648438 201.753906 665.84375 C 188.398438 658.503906 202.421875 638.292969 212.242188 572.382812 C 219.554688 523.28125 223.8125 482.601562 214.761719 498.296875 C 210.316406 506 163.816406 459.679688 168.667969 445.847656 C 179.3125 415.511719 198.039062 386.890625 250.5625 363.457031 " fill-opacity="1" fill-rule="nonzero"/><path fill="#000000" d="M 508.449219 347.472656 L 547.425781 352.757812 C 550.070312 442.605469 541.511719 507.152344 424.636719 483.871094 L 440.40625 400.320312 C 483.988281 430.738281 500.210938 393.738281 508.449219 347.472656 " fill-opacity="1" fill-rule="nonzero"/><path fill="#000000" d="M 179.464844 423.445312 C 122.652344 506.023438 155.3125 674.867188 232.3125 676.128906 L 230.332031 603.128906 C 223.886719 594.976562 220.632812 514.402344 232.808594 488.84375 L 179.464844 423.445312 " fill-opacity="1" fill-rule="nonzero"/><path fill="#99b9ff" d="M 198.375 664.628906 C 198.253906 664.628906 198.128906 664.613281 198.003906 664.578125 C 197.269531 664.371094 196.839844 663.613281 197.042969 662.875 C 208.515625 621.734375 214.90625 555.867188 217.0625 507.941406 C 217.097656 507.179688 217.699219 506.59375 218.503906 506.625 C 219.265625 506.660156 219.855469 507.304688 219.820312 508.066406 C 217.65625 556.144531 211.238281 622.257812 199.703125 663.617188 C 199.535156 664.226562 198.980469 664.628906 198.375 664.628906 " fill-opacity="1" fill-rule="nonzero"/><path fill="#ffffff" d="M 280.039062 356.019531 C 280.5625 354.089844 299.707031 338.222656 294.691406 302.546875 C 294.691406 302.546875 268.796875 267.34375 276.671875 251.820312 C 284.546875 236.296875 283.882812 213.339844 310.332031 213.15625 C 336.777344 212.964844 352.332031 224.832031 358.429688 240.257812 C 364.53125 255.683594 366.136719 271.140625 366.699219 280.121094 C 367.113281 286.765625 366.222656 301.621094 365.734375 308.894531 C 365.566406 311.394531 363.839844 313.511719 361.421875 314.191406 L 353.425781 316.433594 C 350.824219 317.164062 349.046875 319.566406 349.097656 322.265625 L 349.402344 336.550781 C 350.644531 371.472656 339.335938 366.617188 331.046875 368.503906 C 309.878906 373.320312 277.265625 366.265625 280.039062 356.019531 " fill-opacity="1" fill-rule="nonzero"/><path fill="#000000" d="M 281.332031 356.507812 Z M 281.351562 356.464844 C 281.042969 357.730469 281.488281 358.964844 282.714844 360.238281 C 288.910156 366.695312 312.761719 371.25 330.742188 367.160156 C 332.035156 366.863281 333.386719 366.726562 334.695312 366.59375 C 341.746094 365.867188 349.042969 365.113281 348.019531 336.597656 L 347.722656 322.292969 C 347.652344 318.957031 349.847656 316.003906 353.0625 315.101562 L 361.050781 312.863281 C 362.898438 312.335938 364.222656 310.707031 364.359375 308.800781 C 364.894531 300.886719 365.730469 286.648438 365.324219 280.203125 C 364.394531 265.40625 361.644531 252.132812 357.148438 240.761719 C 350.492188 223.925781 333.453125 214.363281 310.34375 214.535156 C 291.25 214.667969 287.09375 227.054688 282.683594 240.167969 C 281.289062 244.316406 279.847656 248.613281 277.90625 252.441406 C 270.503906 267.035156 295.550781 301.382812 295.804688 301.722656 L 296.011719 302.003906 L 296.0625 302.347656 C 300.410156 333.28125 286.894531 349.683594 282.453125 355.070312 C 282.003906 355.613281 281.5 356.226562 281.351562 356.464844 Z M 315.75 371.445312 C 301.199219 371.445312 286.179688 367.835938 280.71875 362.152344 C 278.289062 359.621094 278.285156 357.222656 278.710938 355.664062 C 278.867188 355.082031 279.324219 354.53125 280.324219 353.3125 C 284.554688 348.171875 297.40625 332.578125 293.371094 303.078125 C 290.730469 299.425781 267.570312 266.710938 275.441406 251.195312 C 277.292969 247.542969 278.703125 243.34375 280.066406 239.285156 C 284.585938 225.832031 289.261719 211.925781 310.320312 211.769531 C 334.636719 211.605469 352.617188 221.792969 359.714844 239.746094 C 364.320312 251.390625 367.132812 264.941406 368.078125 280.03125 C 368.496094 286.632812 367.65625 301.003906 367.113281 308.980469 C 366.902344 312.0625 364.765625 314.683594 361.796875 315.515625 L 353.804688 317.761719 C 351.804688 318.320312 350.4375 320.160156 350.484375 322.234375 L 350.78125 336.519531 C 351.804688 365.304688 344.5625 368.347656 334.980469 369.339844 C 333.699219 369.472656 332.488281 369.59375 331.355469 369.855469 C 326.570312 370.941406 321.191406 371.445312 315.75 371.445312 " fill-opacity="1" fill-rule="nonzero"/><path fill="#000000" d="M 349.453125 264.105469 C 352.65625 262.761719 354.738281 259.652344 354.8125 256.179688 C 354.902344 252.019531 352.359375 242.460938 358.429688 240.257812 C 374.730469 234.328125 368.394531 214.730469 358.695312 207.484375 C 348.996094 200.230469 310.980469 188.195312 291.765625 198.648438 C 291.765625 198.648438 284.15625 205.019531 285.867188 211.332031 C 285.867188 211.332031 270.566406 211.769531 266.984375 223.109375 C 263.40625 234.445312 257.386719 276.074219 295.535156 307.574219 C 295.535156 307.574219 305.386719 308.734375 316.335938 305.835938 C 322.707031 304.148438 327.375 298.6875 328.257812 292.152344 C 329.613281 282.140625 333.675781 266.808594 336.449219 262.253906 C 336.449219 262.253906 334.6875 255.164062 338.664062 253.339844 C 341.246094 252.160156 344.390625 255.152344 345.789062 257.625 L 349.453125 264.105469 " fill-opacity="1" fill-rule="nonzero"/><path fill="#000000" d="M 364.683594 312.953125 C 364.605469 312.953125 364.53125 312.945312 364.453125 312.929688 C 364.304688 312.910156 349.808594 310.3125 346.429688 294.578125 C 346.269531 293.835938 346.742188 293.101562 347.484375 292.9375 C 348.234375 292.78125 348.96875 293.253906 349.128906 294 C 352.121094 307.921875 364.78125 310.1875 364.910156 310.207031 C 365.660156 310.332031 366.167969 311.042969 366.042969 311.800781 C 365.929688 312.472656 365.347656 312.953125 364.683594 312.953125 " fill-opacity="1" fill-rule="nonzero"/><path fill="#000000" d="M 346.734375 280.308594 C 346.726562 280.308594 346.710938 280.308594 346.699219 280.308594 C 346.199219 280.300781 334.355469 279.789062 331.25 259.109375 C 331.136719 258.355469 331.660156 257.648438 332.410156 257.539062 C 333.160156 257.425781 333.867188 257.941406 333.980469 258.699219 C 336.722656 276.9375 346.367188 277.535156 346.773438 277.550781 C 347.53125 277.582031 348.132812 278.214844 348.105469 278.972656 C 348.082031 279.722656 347.472656 280.308594 346.734375 280.308594 " fill-opacity="1" fill-rule="nonzero"/><path fill="#ffffff" d="M 481.804688 681.785156 C 472.570312 684.3125 463.035156 678.875 460.507812 669.632812 C 457.976562 660.398438 463.414062 650.855469 472.644531 648.324219 C 481.878906 645.796875 491.414062 651.234375 493.941406 660.472656 C 496.46875 669.714844 491.035156 679.253906 481.804688 681.785156 Z M 511.707031 659.097656 L 509.929688 652.601562 L 502.582031 652.933594 C 501.898438 651.503906 501.113281 650.148438 500.222656 648.878906 L 504.109375 642.644531 L 499.324219 637.90625 L 493.125 641.871094 C 491.839844 640.988281 490.476562 640.207031 489.054688 639.550781 L 489.308594 632.191406 L 482.796875 630.484375 L 479.417969 637.011719 C 477.871094 636.890625 476.304688 636.902344 474.726562 637.042969 L 471.269531 630.546875 L 464.777344 632.324219 L 465.113281 639.679688 C 463.683594 640.359375 462.328125 641.148438 461.058594 642.039062 L 454.832031 638.148438 L 450.09375 642.941406 L 454.054688 649.140625 C 453.171875 650.433594 452.394531 651.792969 451.734375 653.214844 L 444.386719 652.960938 L 442.679688 659.476562 L 449.199219 662.859375 C 449.078125 664.402344 449.09375 665.972656 449.234375 667.550781 L 442.742188 671.011719 L 444.519531 677.507812 L 451.867188 677.175781 C 452.546875 678.601562 453.335938 679.960938 454.226562 681.230469 L 450.335938 687.464844 L 455.121094 692.203125 L 461.316406 688.238281 C 462.609375 689.125 463.972656 689.902344 465.390625 690.558594 L 465.136719 697.917969 L 471.648438 699.625 L 475.027344 693.097656 C 476.578125 693.222656 478.140625 693.207031 479.722656 693.066406 L 483.175781 699.5625 L 489.667969 697.78125 L 489.335938 690.429688 C 490.765625 689.75 492.121094 688.960938 493.386719 688.070312 L 499.617188 691.957031 L 504.351562 687.167969 L 500.394531 680.96875 C 501.273438 679.679688 502.054688 678.316406 502.710938 676.898438 L 510.0625 677.152344 L 511.769531 670.632812 L 505.246094 667.253906 C 505.367188 665.703125 505.355469 664.136719 505.214844 662.558594 L 511.707031 659.097656 " fill-opacity="1" fill-rule="nonzero"/><path fill="#265df2" d="M 256.972656 152.265625 C 256.972656 186.101562 229.542969 213.527344 195.710938 213.527344 C 161.878906 213.527344 134.453125 186.101562 134.453125 152.265625 C 134.453125 118.433594 161.878906 91.007812 195.710938 91.007812 C 229.542969 91.007812 256.972656 118.433594 256.972656 152.265625 " fill-opacity="1" fill-rule="nonzero"/><path fill="#ffffff" d="M 209.90625 143.628906 L 209.597656 124.195312 C 209.457031 117.917969 204.476562 112.777344 198.203125 112.488281 C 191.289062 112.167969 185.550781 117.828125 185.710938 124.746094 L 185.847656 130.777344 C 185.894531 132.878906 184.160156 134.585938 182.054688 134.5 C 180.121094 134.421875 178.585938 132.847656 178.558594 130.910156 L 178.476562 125.1875 C 178.21875 114.070312 187.117188 104.945312 198.59375 105.40625 L 198.59375 105.417969 C 208.070312 105.804688 216.746094 114.144531 216.980469 124.300781 L 217.226562 143.925781 L 209.90625 143.628906 " fill-opacity="1" fill-rule="nonzero"/><path fill="#000000" d="M 211.265625 142.304688 L 215.828125 142.492188 L 215.601562 124.320312 C 215.386719 115.199219 207.570312 107.167969 198.535156 106.800781 C 198.480469 106.800781 198.429688 106.792969 198.375 106.785156 C 193.347656 106.625 188.683594 108.417969 185.191406 111.851562 C 181.632812 115.347656 179.738281 120.078125 179.859375 125.15625 L 179.9375 130.894531 C 179.957031 132.097656 180.910156 133.074219 182.109375 133.125 C 182.746094 133.148438 183.339844 132.921875 183.789062 132.476562 C 184.238281 132.035156 184.480469 131.441406 184.464844 130.8125 L 184.328125 124.78125 C 184.242188 121.085938 185.714844 117.484375 188.359375 114.894531 C 191.03125 112.285156 194.539062 110.941406 198.265625 111.113281 C 205.234375 111.433594 210.820312 117.164062 210.976562 124.164062 Z M 217.226562 145.308594 C 217.207031 145.308594 217.1875 145.308594 217.171875 145.308594 L 209.851562 145.007812 C 209.117188 144.976562 208.539062 144.382812 208.523438 143.652344 L 208.21875 124.21875 C 208.089844 118.671875 203.664062 114.125 198.140625 113.871094 C 195.214844 113.734375 192.40625 114.800781 190.289062 116.867188 C 188.160156 118.957031 187.019531 121.742188 187.089844 124.714844 L 187.226562 130.746094 C 187.257812 132.128906 186.710938 133.480469 185.726562 134.445312 C 184.738281 135.414062 183.355469 135.9375 182 135.882812 C 179.335938 135.773438 177.21875 133.597656 177.179688 130.9375 L 177.097656 125.207031 C 176.960938 119.453125 179.207031 113.859375 183.257812 109.882812 C 187.335938 105.871094 192.8125 103.796875 198.648438 104.03125 C 198.703125 104.035156 198.761719 104.039062 198.820312 104.050781 C 209.183594 104.570312 218.117188 113.792969 218.363281 124.269531 L 218.605469 143.910156 C 218.613281 144.289062 218.460938 144.652344 218.1875 144.917969 C 217.929688 145.167969 217.585938 145.308594 217.226562 145.308594 " fill-opacity="1" fill-rule="nonzero"/><path fill="#265df2" d="M 201.785156 197.0625 L 193.585938 197.382812 C 182.234375 197.101562 172.199219 183.539062 173.277344 167.589844 L 175 142.085938 L 223.246094 141.699219 C 227.527344 141.679688 231.117188 145.496094 230.820312 149.769531 L 229.332031 171.3125 C 228.351562 185.804688 216.308594 197.0625 201.785156 197.0625 " fill-opacity="1" fill-rule="nonzero"/><path fill="#ffffff" d="M 193.882812 196.664062 C 177.898438 196.664062 165.253906 183.136719 166.332031 167.1875 L 168.003906 142.460938 L 219.015625 142.460938 C 221.359375 142.460938 223.21875 144.445312 223.0625 146.785156 L 221.429688 170.910156 C 220.449219 185.402344 208.40625 196.664062 193.882812 196.664062 " fill-opacity="1" fill-rule="nonzero"/><path fill="#000000" d="M 193.878906 198.042969 C 179.578125 198.042969 167.246094 187.390625 165.1875 173.265625 C 165.078125 172.511719 165.601562 171.808594 166.355469 171.699219 C 167.109375 171.589844 167.8125 172.109375 167.921875 172.867188 C 169.78125 185.644531 180.941406 195.28125 193.878906 195.28125 C 207.628906 195.28125 219.125 184.539062 220.050781 170.824219 L 221.691406 146.570312 C 221.738281 145.855469 221.496094 145.171875 221.007812 144.652344 C 220.519531 144.128906 219.855469 143.84375 219.140625 143.84375 L 171.996094 143.84375 C 170.480469 143.84375 169.210938 145.023438 169.113281 146.542969 L 168.882812 149.917969 C 168.832031 150.679688 168.171875 151.257812 167.410156 151.203125 C 166.652344 151.152344 166.078125 150.492188 166.128906 149.730469 L 166.355469 146.355469 C 166.554688 143.398438 169.03125 141.082031 171.996094 141.082031 L 219.140625 141.082031 C 220.609375 141.082031 222.023438 141.695312 223.023438 142.765625 C 224.027344 143.835938 224.542969 145.292969 224.445312 146.753906 L 222.808594 171.007812 C 221.78125 186.167969 209.074219 198.042969 193.878906 198.042969 " fill-opacity="1" fill-rule="nonzero"/><path fill="#000000" d="M 193.246094 181.015625 C 191.945312 181.015625 190.910156 179.921875 190.992188 178.621094 L 192.21875 159.394531 C 192.296875 158.207031 193.28125 157.285156 194.46875 157.285156 C 195.773438 157.285156 196.804688 158.386719 196.722656 159.683594 L 195.496094 178.90625 C 195.421875 180.09375 194.4375 181.015625 193.246094 181.015625 " fill-opacity="1" fill-rule="nonzero"/><path fill="#000000" d="M 202.339844 161.148438 C 202.339844 165.734375 198.621094 169.453125 194.035156 169.453125 C 189.449219 169.453125 185.730469 165.734375 185.730469 161.148438 C 185.730469 156.566406 189.449219 152.84375 194.035156 152.84375 C 198.621094 152.84375 202.339844 156.566406 202.339844 161.148438 " fill-opacity="1" fill-rule="nonzero"/></svg>